<!DOCTYPE svg PUBLIC "-//W3C//DTD SVG 1.1//EN" "http://www.w3.org/Graphics/SVG/1.1/DTD/svg11.dtd">
<!-- Uploaded to: SVG Repo, www.svgrepo.com, Transformed by: SVG Repo Mixer Tools -->
<svg fill=" #0d6efd" height="800px" width="800px" version="1.1" id="Layer_1" xmlns="http://www.w3.org/2000/svg" xmlns:xlink="http://www.w3.org/1999/xlink" viewBox="0 0 512 512" xml:space="preserve">
<g id="SVGRepo_bgCarrier" stroke-width="0"/>
<g id="SVGRepo_tracerCarrier" stroke-linecap="round" stroke-linejoin="round"/>
<g id="SVGRepo_iconCarrier"> <g> <g> <path d="M341.053,33.391l60.68,45.617l20.065-26.69L352.205,0h-81.573h-115.64h-42.6v33.391h42.6v41.804h-23.799v78.978 c-44.01,12.215-76.408,52.63-76.408,100.477V512h316.057V254.649c0-47.846-32.4-88.262-76.409-100.477V75.195h-23.8V33.391 H341.053z M188.384,33.391h48.857v41.804h-48.857V33.391z M164.585,108.586h96.456v41.803h-96.456V108.586z M337.45,254.649 v223.96H88.176v-223.96c0-39.077,31.792-70.869,70.869-70.869h107.536C305.657,183.78,337.45,215.572,337.45,254.649z"/> </g> </g> <g> <g> <path d="M428.629,108.696c-1.28-1.637-2.49-3.182-3.587-4.62L411.765,86.66l-13.279,17.415c-1.095,1.438-2.304,2.982-3.585,4.618 c-11.385,14.552-28.592,36.542-28.592,60.005c0,25.062,20.39,45.452,45.453,45.452c25.062,0,45.452-20.39,45.452-45.452 C457.217,145.237,440.014,123.247,428.629,108.696z M411.765,180.759c-6.652,0-12.062-5.411-12.062-12.061 c0-7.944,5.715-17.913,12.062-26.918c6.345,9.005,12.061,18.974,12.061,26.918C423.826,175.349,418.415,180.759,411.765,180.759z"/> </g> </g> </g>
</svg>