<!DOCTYPE svg PUBLIC "-//W3C//DTD SVG 1.1//EN" "http://www.w3.org/Graphics/SVG/1.1/DTD/svg11.dtd">
<!-- Uploaded to: SVG Repo, www.svgrepo.com, Transformed by: SVG Repo Mixer Tools -->
<svg fill="#0d6efd" height="800px" width="800px" version="1.1" id="Layer_1" xmlns="http://www.w3.org/2000/svg" xmlns:xlink="http://www.w3.org/1999/xlink" viewBox="0 0 511.782 511.782" xml:space="preserve">
<g id="SVGRepo_bgCarrier" stroke-width="0"/>
<g id="SVGRepo_tracerCarrier" stroke-linecap="round" stroke-linejoin="round"/>
<g id="SVGRepo_iconCarrier"> <g> <g> <path d="M498.223,80.207c-11.413-15.04-32.32-15.467-49.067-15.787h-1.813c0-0.853,0-1.813,0-2.667 c0-16.107,0-36.053-14.933-47.36c-28.8-21.653-69.867-18.56-93.44,7.147c-20.16,21.867-24.64,53.333-11.093,78.4 c2.453,4.48,1.92,9.6-1.173,12.693l-214.4,214.4c-3.2,3.2-8.107,3.84-12.053,1.493c-26.133-14.613-58.56-9.387-80.96,12.907 C9.263,351.781,2.756,365.007,0.943,379.301c-2.133,15.467,1.173,29.013,10.027,40.213c13.973,17.707,37.867,24.533,53.44,27.093 c0,1.067,0,2.133,0,3.307c0,15.893,0,35.52,12.587,46.4c11.733,10.027,26.667,15.573,42.027,15.467 c20.373-0.107,39.68-8.853,53.227-24c22.4-24.853,24.96-54.4,7.04-81.173c-2.667-3.947-2.24-9.28,1.067-12.693l213.12-213.333 c3.307-3.307,8.533-3.84,12.48-1.173c27.52,18.56,58.88,15.147,83.84-9.067C515.076,145.807,518.703,107.087,498.223,80.207z M475.716,155.514c-10.24,9.92-31.36,24.107-57.173,6.72c-12.373-8.32-28.907-6.72-39.467,3.84L165.743,379.407 c-10.56,10.667-12.053,27.2-3.733,39.68c15.68,23.467,5.867,42.88-5.227,55.04c-17.813,19.733-47.147,22.72-65.6,6.72 c-5.12-4.48-5.227-20.053-5.227-30.4c0-5.12,0-9.813-0.427-13.653c-0.533-5.12-4.48-9.067-9.6-9.6 c-21.76-2.027-39.68-9.707-48.107-20.267c-5.227-6.507-7.04-14.4-5.653-24c1.28-9.707,5.653-18.773,12.373-25.813 c9.707-9.707,22.187-14.827,34.453-14.827c7.36,0,14.72,1.92,21.12,5.44c12.267,6.827,27.52,4.8,37.44-5.12l214.613-214.613 c9.92-9.92,11.84-25.173,4.907-37.973c-9.173-16.96-5.973-38.507,8-53.76c16.32-17.707,44.907-19.627,65.067-4.48 c6.507,4.907,6.4,18.347,6.4,30.293c0,5.013,0,9.813,0.427,13.973c0.533,5.12,4.48,9.067,9.6,9.6 c3.733,0.32,8.107,0.427,12.693,0.533c12.16,0.213,27.413,0.533,32.533,7.36C496.196,112.207,493.529,138.234,475.716,155.514z"/> </g> </g> </g>
</svg>