<!DOCTYPE svg PUBLIC "-//W3C//DTD SVG 1.1//EN" "http://www.w3.org/Graphics/SVG/1.1/DTD/svg11.dtd">
<!-- Uploaded to: SVG Repo, www.svgrepo.com, Transformed by: SVG Repo Mixer Tools -->
<svg fill="#0d6efd" height="800px" width="800px" version="1.1" id="Layer_1" xmlns="http://www.w3.org/2000/svg" xmlns:xlink="http://www.w3.org/1999/xlink" viewBox="0 0 512 512" xml:space="preserve" stroke="#0d6efd" stroke-width="4.096">
<g id="SVGRepo_bgCarrier" stroke-width="0"/>
<g id="SVGRepo_tracerCarrier" stroke-linecap="round" stroke-linejoin="round"/>
<g id="SVGRepo_iconCarrier"> <g> <g> <path d="M456.707,197.621c5.015,0,9.078-4.065,9.078-9.078V9.078C465.784,4.065,461.721,0,456.706,0H55.293 c-5.015,0-9.078,4.065-9.078,9.078v493.844c0,5.013,4.063,9.078,9.078,9.078h401.414c5.015,0,9.078-4.065,9.078-9.078V218.198 c0-5.013-4.063-9.078-9.078-9.078s-9.078,4.065-9.078,9.078v275.646H64.371V136.501h383.258v52.042 C447.629,193.557,451.692,197.621,456.707,197.621z M64.371,118.345V92.101H367.36c5.015,0,9.078-4.065,9.078-9.078 c0-5.013-4.063-9.078-9.078-9.078H64.371V18.156h383.258v55.789h-50.008c-5.015,0-9.078,4.065-9.078,9.078 s4.063,9.078,9.078,9.078h50.008v26.244H64.371z"/> </g> </g> <g> <g> <path d="M414.344,246.923c-24.408,0-36.352-5.478-48.996-11.277c-13.86-6.357-28.194-12.931-56.567-12.931 s-42.705,6.574-56.566,12.931c-12.644,5.8-24.588,11.277-48.996,11.277s-36.351-5.478-48.996-11.277 c-13.86-6.357-28.191-12.931-56.563-12.931c-5.015,0-9.078,4.065-9.078,9.078v95.946c0,5.013,4.063,9.078,9.078,9.078 s9.078-4.065,9.078-9.078v-86.591c18.508,1.181,28.947,5.97,39.917,11c13.86,6.357,28.193,12.931,56.565,12.931 c28.373,0,42.705-6.574,56.566-12.931c12.644-5.8,24.588-11.277,48.996-11.277c24.409,0,36.353,5.478,48.997,11.277 c12.298,5.64,24.969,11.45,47.488,12.69v176.837c0,5.406-4.399,9.804-9.804,9.804H116.538c-5.406,0-9.804-4.397-9.804-9.804 v-83.676c0.001-5.013-4.063-9.078-9.077-9.078c-5.015,0-9.078,4.065-9.078,9.078v83.676c0,15.417,12.542,27.96,27.96,27.96 h278.923c15.417,0,27.96-12.542,27.96-27.96V256.001C423.422,250.988,419.359,246.923,414.344,246.923z"/> </g> </g> <g> <g> <circle cx="367.356" cy="337.157" r="9.078"/> </g> </g> <g> <g> <circle cx="338.658" cy="295.06" r="9.078"/> </g> </g> <g> <g> <circle cx="177.577" cy="387.05" r="9.078"/> </g> </g> <g> <g> <circle cx="139.801" cy="399.154" r="9.078"/> </g> </g> <g> <g> <circle cx="162.29" cy="423.362" r="9.078"/> </g> </g> </g>
</svg>